<svg width="349" height="148" viewBox="0 0 349 148" fill="none" xmlns="http://www.w3.org/2000/svg">
<path d="M0.384766 15.0576C0.384766 6.77335 7.10049 0.0576172 15.3848 0.0576172H333.615C341.899 0.0576172 348.615 6.77335 348.615 15.0576V132.597C348.615 140.882 341.899 147.597 333.615 147.597H15.3847C7.10048 147.597 0.384766 140.882 0.384766 132.597V15.0576Z" fill="#FFC173"/>
<mask id="mask0_1_1356" style="mask-type:alpha" maskUnits="userSpaceOnUse" x="0" y="0" width="349" height="148">
<rect x="0.38501" y="0.0576172" width="348.23" height="147.54" rx="15" fill="#FFC173"/>
</mask>
<g mask="url(#mask0_1_1356)">
<path d="M37.5 47.7702L37.5 100.232C37.5 102.866 39.6266 105.001 42.25 105.001L70.75 105.001C73.3733 105.001 75.5 102.866 75.5 100.232L75.5 47.7702C75.5 45.1362 73.3734 43.001 70.75 43.001L42.25 43.001C39.6267 43.001 37.5 45.1362 37.5 47.7702Z" stroke="#625FFB" stroke-width="4" stroke-linecap="round" stroke-linejoin="round"/>
<path d="M65.5 95.001L46.5 95.001" stroke="#625FFB" stroke-width="4" stroke-linecap="round" stroke-linejoin="round"/>
<path d="M140.531 -53.7195L184.861 111.722C187.086 120.028 195.624 124.957 203.931 122.732L294.171 98.5519C302.478 96.3262 307.407 87.7882 305.181 79.4818L260.852 -85.9594C258.626 -94.2658 250.088 -99.1952 241.782 -96.9695L151.541 -72.7896C143.235 -70.5639 138.305 -62.0259 140.531 -53.7195Z" stroke="#EFA346" stroke-width="17" stroke-linecap="round" stroke-linejoin="round"/>
<path d="M271.07 72.502L210.91 88.6219" stroke="#EFA346" stroke-width="17" stroke-linecap="round" stroke-linejoin="round"/>
</g>
</svg>
