<svg width="349" height="148" viewBox="0 0 349 148" fill="none" xmlns="http://www.w3.org/2000/svg">
<rect x="0.5" y="0.326172" width="348" height="147" rx="15" fill="#4CC1FF"/>
<mask id="mask0_1_1310" style="mask-type:alpha" maskUnits="userSpaceOnUse" x="0" y="0" width="349" height="148">
<rect x="0.38501" y="0.0576172" width="348.23" height="147.54" rx="15" fill="#FFF3E0"/>
</mask>
<g mask="url(#mask0_1_1310)">
<path d="M192.063 -24.3969C209.204 -25.9975 225.993 -31.3899 241.106 -40.1487C248.465 -44.3892 256.609 -47.0503 264.938 -47.9362C273.268 -48.822 281.572 -47.9099 289.238 -45.2672M270.55 7.80192C244.682 22.7809 215.539 31.1176 185.879 32.0229M253.855 -17.7922C260.545 -21.6543 268.487 -22.7133 275.935 -20.7364C283.383 -18.7594 289.727 -13.9084 293.571 -7.25041C297.415 -0.592462 298.444 7.32701 296.432 14.7658C294.42 22.2046 289.532 28.5534 282.843 32.4155C256.873 47.4783 227.892 56.5999 198.001 59.1189M265.927 103.538C281.967 97.9842 297.448 90.9175 312.157 82.435C332.075 70.935 346.647 52.0569 352.665 29.9539C358.683 7.85079 355.655 -15.6668 344.248 -35.4252C332.84 -55.1836 313.987 -69.5644 291.837 -75.4039C269.686 -81.2435 246.051 -78.0635 226.132 -66.5634C217.615 -61.616 208.311 -58.1699 198.634 -56.378M227.341 -6.00986C212.89 -1.02851 197.827 1.72142 182.717 2.13679M314.68 -24.7218C316.051 -22.915 317.312 -21.0287 318.456 -19.0721C325.649 -6.61264 327.351 8.33694 323.187 22.4879C319.023 36.6389 309.334 48.8322 296.252 56.3853C288.003 61.1388 279.483 65.404 270.74 69.1567M244.752 79.0702C238.958 81.3792 233.104 83.5846 227.371 85.5817" stroke="#32ACED" stroke-width="14" stroke-linecap="round" stroke-linejoin="round"/>
<path d="M30.984 70.3178C36.2742 68.3572 41.1316 65.2261 45.1729 61.1715C47.1426 59.2049 49.4949 57.6718 52.0566 56.6848C54.6183 55.6979 57.3243 55.2822 59.9754 55.4685" stroke="white" stroke-width="3" stroke-linecap="round" stroke-linejoin="round"/>
<path d="M58.561 73.854C51.6431 80.7899 43.1248 85.9009 33.8123 88.7033" stroke="white" stroke-width="3" stroke-linecap="round" stroke-linejoin="round"/>
<path d="M51.1044 67.1681C52.8944 65.3781 55.3188 64.3692 57.8442 64.3632C60.3697 64.3573 62.7894 65.3548 64.571 67.1364C66.3526 68.918 67.3501 71.3377 67.3442 73.8632C67.3382 76.3886 66.3293 78.813 64.5393 80.603C57.5959 87.5741 49.1955 92.9198 39.9471 96.2526" stroke="white" stroke-width="3" stroke-linecap="round" stroke-linejoin="round"/>
<path d="M65.2175 104.552C69.8241 101.434 74.1252 97.8836 78.062 93.9507C83.3919 88.6207 86.4033 81.4088 86.4336 73.9013C86.464 66.3939 83.5107 59.2061 78.2236 53.919C72.9365 48.6318 65.7487 45.6786 58.2412 45.7089C50.7338 45.7393 43.5219 48.7506 38.1919 54.0806C35.9151 56.3693 33.2622 58.2493 30.3509 59.6374" stroke="white" stroke-width="3" stroke-linecap="round" stroke-linejoin="round"/>
<path d="M43.7113 73.1469C39.5592 75.9495 35.0242 78.0977 30.2763 79.5108" stroke="white" stroke-width="3" stroke-linecap="round" stroke-linejoin="round"/>
<path d="M69.7719 59.815C70.3592 60.2707 70.9182 60.7609 71.4463 61.2833C74.7803 64.6172 76.5871 69.2053 76.4692 74.0381C76.3514 78.871 74.3185 83.5527 70.8178 87.0534C68.6097 89.2578 66.2745 91.3307 63.8253 93.2602" stroke="white" stroke-width="3" stroke-linecap="round" stroke-linejoin="round"/>
<path d="M56.4395 98.6026C54.8012 99.825 53.1351 101.02 51.4898 102.138" stroke="white" stroke-width="3" stroke-linecap="round" stroke-linejoin="round"/>
</g>
<rect x="0.5" y="0.326172" width="348" height="147" rx="15" fill="#FF6CD3"/>
<mask id="mask1_1_1310" style="mask-type:alpha" maskUnits="userSpaceOnUse" x="0" y="0" width="349" height="148">
<rect x="0.38501" y="0.0576172" width="348.23" height="147.54" rx="15" fill="#FFF3E0"/>
</mask>
<g mask="url(#mask1_1_1310)">
<path d="M91.8294 74.1795H89.2739V63.6081H90.5516C91.9059 63.6125 93.2035 64.1708 94.1611 65.1611C95.1187 66.1514 95.6585 67.4933 95.6628 68.8938C95.6628 69.2443 95.7974 69.5804 96.037 69.8282C96.2766 70.076 96.6017 70.2153 96.9405 70.2153C97.2794 70.2153 97.6044 70.076 97.8441 69.8282C98.0837 69.5804 98.2183 69.2443 98.2183 68.8938C98.2183 66.791 97.4106 64.7744 95.9728 63.2875C94.535 61.8006 92.585 60.9653 90.5516 60.9653H89.2739V58.3224C89.2739 57.9719 89.1392 57.6358 88.8996 57.388C88.66 57.1402 88.335 57.001 87.9961 57.001C87.6572 57.001 87.3322 57.1402 87.0926 57.388C86.8529 57.6358 86.7183 57.9719 86.7183 58.3224V60.9653H84.8016C82.7683 60.9653 80.8183 61.8006 79.3805 63.2875C77.9427 64.7744 77.135 66.791 77.135 68.8938C77.135 70.9966 77.9427 73.0133 79.3805 74.5002C80.8183 75.9871 82.7683 76.8224 84.8016 76.8224H86.7183V87.3938H84.1628C82.8085 87.3895 81.5109 86.8312 80.5533 85.8409C79.5957 84.8505 79.0559 83.5086 79.0516 82.1081C79.0516 81.7577 78.917 81.4215 78.6774 81.1737C78.4378 80.9259 78.1128 80.7867 77.7739 80.7867C77.435 80.7867 77.11 80.9259 76.8703 81.1737C76.6307 81.4215 76.4961 81.7577 76.4961 82.1081C76.4961 84.2109 77.3038 86.2276 78.7416 87.7145C80.1794 89.2014 82.1294 90.0367 84.1628 90.0367H86.7183V92.6795C86.7183 93.03 86.8529 93.3661 87.0926 93.6139C87.3322 93.8618 87.6572 94.001 87.9961 94.001C88.335 94.001 88.66 93.8618 88.8996 93.6139C89.1392 93.3661 89.2739 93.03 89.2739 92.6795V90.0367H91.8294C93.8628 90.0367 95.8128 89.2014 97.2506 87.7145C98.6884 86.2276 99.4961 84.2109 99.4961 82.1081C99.4961 80.0053 98.6884 77.9887 97.2506 76.5018C95.8128 75.0149 93.8628 74.1795 91.8294 74.1795ZM86.7183 74.1795H84.8016C83.4461 74.1795 82.1461 73.6227 81.1875 72.6314C80.229 71.6401 79.6905 70.2957 79.6905 68.8938C79.6905 67.492 80.229 66.1475 81.1875 65.1563C82.1461 64.165 83.4461 63.6081 84.8016 63.6081H86.7183V74.1795ZM91.8294 87.3938H89.2739V76.8224H91.8294C93.185 76.8224 94.485 77.3793 95.4435 78.3706C96.402 79.3618 96.9405 80.7063 96.9405 82.1081C96.9405 83.51 96.402 84.8544 95.4435 85.8457C94.485 86.8369 93.185 87.3938 91.8294 87.3938Z" fill="white"/>
<circle cx="87.4961" cy="74.001" r="27.5" stroke="white" stroke-width="3"/>
<line x1="46.9961" y1="51.501" x2="69.9961" y2="51.501" stroke="white" stroke-width="3" stroke-linecap="round"/>
<line x1="31.9961" y1="83.501" x2="54.9961" y2="83.501" stroke="white" stroke-width="3" stroke-linecap="round"/>
<line x1="46.9961" y1="96.501" x2="69.9961" y2="96.501" stroke="white" stroke-width="3" stroke-linecap="round"/>
<line x1="44.9961" y1="62.501" x2="54.9961" y2="62.501" stroke="white" stroke-width="3" stroke-linecap="round"/>
<line x1="34.9961" y1="62.501" x2="38.9961" y2="62.501" stroke="white" stroke-width="3" stroke-linecap="round"/>
<line x1="35.9961" y1="73.501" x2="58.9961" y2="73.501" stroke="white" stroke-width="3" stroke-linecap="round"/>
<path d="M338.022 71.3634L332.141 72.9393L325.622 48.6103L328.562 47.8224C331.682 46.9973 335.012 47.4819 337.827 49.1706C340.641 50.8592 342.711 53.6145 343.584 56.8351C343.801 57.6416 344.318 58.3321 345.022 58.7547C345.726 59.1772 346.56 59.2972 347.34 59.0882C348.12 58.8793 348.782 58.3584 349.181 57.6404C349.579 56.9223 349.682 56.0657 349.466 55.2592C348.169 50.4198 345.067 46.2768 340.841 43.7415C336.615 41.2062 331.612 40.4862 326.933 41.7401L323.992 42.5281L322.362 36.4458C322.146 35.6393 321.629 34.9487 320.925 34.5262C320.22 34.1036 319.387 33.9837 318.607 34.1926C317.827 34.4016 317.165 34.9224 316.766 35.6405C316.367 36.3586 316.265 37.2152 316.481 38.0217L318.111 44.104L313.7 45.2859C309.02 46.5397 305.047 49.6647 302.655 53.9732C300.263 58.2818 299.648 63.421 300.945 68.2603C302.241 73.0997 305.344 77.2427 309.57 79.778C313.796 82.3134 318.798 83.0333 323.478 81.7794L327.889 80.5975L334.408 104.926L328.527 106.502C325.407 107.327 322.077 106.843 319.262 105.154C316.448 103.466 314.378 100.71 313.504 97.4897C313.288 96.6831 312.771 95.9926 312.067 95.5701C311.363 95.1475 310.529 95.0275 309.749 95.2365C308.969 95.4455 308.307 95.9663 307.908 96.6844C307.51 97.4025 307.407 98.259 307.623 99.0656C308.92 103.905 312.022 108.048 316.248 110.583C320.474 113.119 325.477 113.838 330.156 112.585L336.038 111.009L337.667 117.091C337.884 117.898 338.401 118.588 339.105 119.011C339.809 119.433 340.643 119.553 341.423 119.344C342.203 119.135 342.865 118.614 343.264 117.896C343.662 117.178 343.765 116.322 343.549 115.515L341.919 109.433L347.8 107.857C352.48 106.603 356.453 103.478 358.845 99.1696C361.237 94.8611 361.852 89.7218 360.555 84.8825C359.258 80.0431 356.156 75.9001 351.93 73.3648C347.704 70.8295 342.701 70.1096 338.022 71.3634ZM326.259 74.5152L321.848 75.6971C318.729 76.5331 315.393 76.0531 312.576 74.3629C309.759 72.6727 307.691 69.9107 306.826 66.6844C305.962 63.4582 306.372 60.0321 307.967 57.1597C309.561 54.2873 312.21 52.204 315.329 51.3681L319.74 50.1862L326.259 74.5152ZM346.171 101.775L340.289 103.351L333.77 79.0216L339.652 77.4457C342.771 76.6098 346.107 77.0897 348.924 78.7799C351.741 80.4701 353.809 83.2322 354.674 86.4584C355.538 89.6846 355.128 93.1108 353.533 95.9831C351.939 98.8555 349.29 100.939 346.171 101.775Z" fill="#F54BC2"/>
<circle cx="327.944" cy="73.6237" r="68.8809" transform="rotate(-15 327.944 73.6237)" stroke="#F54BC3" stroke-width="15"/>
<line x1="222.658" y1="41.5099" x2="292.816" y2="14.6748" stroke="#F54BC3" stroke-width="15" stroke-linecap="round"/>
<line x1="208.846" y1="124.902" x2="254.194" y2="112.752" stroke="#F54BC3" stroke-width="15" stroke-linecap="round"/>
<line x1="250.327" y1="145.038" x2="286.781" y2="130.754" stroke="#F54BC3" stroke-width="15" stroke-linecap="round"/>
<line x1="225.813" y1="68.5566" x2="241.242" y2="64.4224" stroke="#F54BC3" stroke-width="15" stroke-linecap="round"/>
<line x1="202.803" y1="74.7236" x2="204.424" y2="74.2893" stroke="#F54BC3" stroke-width="15" stroke-linecap="round"/>
<line x1="211.885" y1="99.4218" x2="257.233" y2="87.2711" stroke="#F54BC3" stroke-width="15" stroke-linecap="round"/>
</g>
</svg>
