<svg width="349" height="148" viewBox="0 0 349 148" fill="none" xmlns="http://www.w3.org/2000/svg">
<rect x="0.5" y="0.326172" width="348" height="147" rx="15" fill="#28AF12"/>
<mask id="mask0_1_1394" style="mask-type:alpha" maskUnits="userSpaceOnUse" x="0" y="0" width="349" height="148">
<rect x="0.38501" y="0.0576172" width="348.23" height="147.54" rx="15" fill="#FFF3E0"/>
</mask>
<g mask="url(#mask0_1_1394)">
<g clip-path="url(#clip0_1_1394)">
<path d="M84.7063 71.3307L88.4515 81.9506C88.5858 82.3538 88.839 82.7068 89.1779 82.9632C89.5167 83.2197 89.9253 83.3674 90.3498 83.3871L101.175 83.9771C101.618 84.0136 102.04 84.1816 102.387 84.4596C102.734 84.7375 102.99 85.1128 103.122 85.5372C103.255 85.9617 103.257 86.4159 103.13 86.8418C103.002 87.2677 102.75 87.6457 102.406 87.9275L93.9154 94.9561C93.5849 95.2362 93.3398 95.6037 93.2082 96.0165C93.0767 96.4293 93.064 96.8708 93.1715 97.2905L96.1215 108.218C96.2924 108.648 96.3203 109.122 96.2009 109.57C96.0815 110.017 95.8212 110.414 95.4585 110.702C95.0959 110.99 94.6502 111.153 94.1874 111.168C93.7247 111.182 93.2695 111.048 92.8893 110.783L83.8855 104.242C83.5429 103.992 83.1297 103.857 82.7055 103.857C82.2813 103.857 81.8681 103.992 81.5255 104.242L72.4447 110.527C72.0645 110.791 71.6094 110.926 71.1466 110.911C70.6839 110.896 70.2381 110.733 69.8755 110.445C69.5128 110.157 69.2525 109.76 69.1331 109.313C69.0137 108.866 69.0416 108.392 69.2126 107.962L72.1626 97.0339C72.2701 96.6143 72.2573 96.1728 72.1258 95.76C71.9942 95.3472 71.7492 94.9797 71.4187 94.6996L63.0048 87.7993C62.7022 87.5096 62.4871 87.1406 62.3844 86.7344C62.2816 86.3283 62.2952 85.9014 62.4237 85.5026C62.5521 85.1039 62.7902 84.7493 63.1108 84.4795C63.4313 84.2098 63.8213 84.0356 64.2361 83.9771L75.0099 83.3871C75.4344 83.3674 75.843 83.2197 76.1818 82.9632C76.5206 82.7068 76.7739 82.3538 76.9082 81.9506L80.6533 71.3307C80.7765 70.8879 81.0413 70.4977 81.4073 70.2196C81.7733 69.9416 82.2202 69.791 82.6798 69.791C83.1395 69.791 83.5864 69.9416 83.9524 70.2196C84.3183 70.4977 84.5832 70.8879 84.7063 71.3307Z" stroke="white" stroke-width="2" stroke-linecap="round" stroke-linejoin="round"/>
<path d="M62.39 37.5986L65.2117 45.4994C65.3136 45.8057 65.5049 46.0745 65.7609 46.2711C66.0169 46.4677 66.326 46.5831 66.6482 46.6025L74.7542 46.9359C75.0913 46.9574 75.4139 47.0808 75.6794 47.2897C75.9448 47.4986 76.1405 47.7831 76.2407 48.1057C76.3408 48.4283 76.3405 48.7737 76.24 49.0962C76.1395 49.4187 75.9434 49.703 75.6777 49.9116L69.316 55.2472C69.0618 55.451 68.8728 55.7248 68.7726 56.0348C68.6723 56.3448 68.665 56.6774 68.7516 56.9915L70.9577 65.1745C71.0572 65.4909 71.0569 65.8302 70.9569 66.1465C70.857 66.4627 70.6621 66.7405 70.3988 66.9422C70.1354 67.1439 69.8165 67.2597 69.4851 67.2739C69.1537 67.288 68.826 67.1999 68.5464 67.0214L61.7743 62.3015C61.5222 62.114 61.2163 62.0129 60.9022 62.0129C60.588 62.0129 60.2822 62.114 60.03 62.3015L53.2579 67.0214C52.9783 67.1999 52.6506 67.288 52.3192 67.2739C51.9878 67.2597 51.6689 67.1439 51.4055 66.9422C51.1422 66.7405 50.9473 66.4627 50.8474 66.1465C50.7474 65.8302 50.7471 65.4909 50.8466 65.1745L53.0527 56.9915C53.1393 56.6774 53.132 56.3448 53.0317 56.0348C52.9315 55.7248 52.7425 55.451 52.4883 55.2472L46.1266 50.1168C45.8049 49.9282 45.5556 49.6371 45.4188 49.2901C45.2819 48.9432 45.2654 48.5604 45.3717 48.2029C45.4781 47.8454 45.7012 47.5339 46.0055 47.3181C46.3098 47.1024 46.6776 46.995 47.0501 47.0129L55.1561 46.6794C55.4879 46.6545 55.8039 46.5279 56.061 46.3167C56.3181 46.1055 56.5038 45.8201 56.5926 45.4994L59.4143 37.5986C59.5166 37.2846 59.7156 37.0111 59.9829 36.817C60.2501 36.623 60.5719 36.5186 60.9022 36.5186C61.2324 36.5186 61.5542 36.623 61.8214 36.817C62.0887 37.0111 62.2877 37.2846 62.39 37.5986Z" stroke="white" stroke-width="2" stroke-linecap="round" stroke-linejoin="round"/>
<path d="M105.999 37.5986L108.82 45.4994C108.922 45.8057 109.114 46.0745 109.37 46.2711C109.626 46.4677 109.935 46.5831 110.257 46.6025L118.363 46.9359C118.7 46.9574 119.023 47.0808 119.288 47.2897C119.553 47.4986 119.749 47.7831 119.849 48.1057C119.949 48.4283 119.949 48.7737 119.849 49.0962C119.748 49.4187 119.552 49.703 119.286 49.9116L112.925 55.2472C112.67 55.451 112.482 55.7248 112.381 56.0348C112.281 56.3448 112.274 56.6774 112.36 56.9915L114.566 65.1745C114.666 65.4909 114.666 65.8302 114.566 66.1465C114.466 66.4627 114.271 66.7405 114.007 66.9422C113.744 67.1439 113.425 67.2597 113.094 67.2739C112.762 67.288 112.435 67.1999 112.155 67.0214L105.383 62.3015C105.131 62.114 104.825 62.0129 104.511 62.0129C104.197 62.0129 103.891 62.114 103.639 62.3015L96.8666 67.0214C96.587 67.1999 96.2593 67.288 95.9279 67.2739C95.5965 67.2597 95.2775 67.1439 95.0142 66.9422C94.7509 66.7405 94.556 66.4627 94.456 66.1465C94.356 65.8302 94.3558 65.4909 94.4553 65.1745L96.6613 56.9915C96.748 56.6774 96.7407 56.3448 96.6404 56.0348C96.5401 55.7248 96.3512 55.451 96.097 55.2472L89.7353 50.1168C89.4696 49.9082 89.2735 49.6239 89.173 49.3014C89.0724 48.979 89.0722 48.6336 89.1723 48.311C89.2725 47.9884 89.4682 47.7038 89.7336 47.4949C89.9991 47.286 90.3217 47.1626 90.6588 47.1412L98.7648 46.8077C99.1137 46.7749 99.4425 46.6295 99.7016 46.3935C99.9607 46.1576 100.136 45.8438 100.201 45.4994L103.023 37.5986C103.125 37.2846 103.324 37.0111 103.592 36.817C103.859 36.623 104.181 36.5186 104.511 36.5186C104.841 36.5186 105.163 36.623 105.43 36.817C105.697 37.0111 105.896 37.2846 105.999 37.5986Z" stroke="white" stroke-width="2" stroke-linecap="round" stroke-linejoin="round"/>
</g>
<g clip-path="url(#clip1_1_1394)">
<path d="M292.886 -3.37409L313.08 22.713C313.822 23.7118 314.888 24.4407 316.138 24.8036C317.387 25.1665 318.761 25.1465 320.078 24.7462L353.752 14.7861C355.141 14.4134 356.572 14.4362 357.864 14.8514C359.156 15.2667 360.249 16.0556 361.003 17.1168C361.756 18.1781 362.137 19.4635 362.095 20.8081C362.053 22.1528 361.591 23.4954 360.768 24.6639L340.501 53.7173C339.717 54.8667 339.267 56.1719 339.202 57.4837C339.138 58.7956 339.461 60.0611 340.135 61.1355L358.144 88.9499C359.021 89.9861 359.495 91.2999 359.496 92.6965C359.497 94.0932 359.024 95.4985 358.148 96.7043C357.273 97.9101 356.04 98.8522 354.633 99.3912C353.227 99.9302 351.72 100.037 350.338 99.6966L317.367 90.8253C316.111 90.4841 314.733 90.5459 313.433 91.0018C312.132 91.4576 310.976 92.2839 310.131 93.3614L287.445 120.94C286.496 122.097 285.211 122.969 283.78 123.424C282.349 123.88 280.848 123.896 279.5 123.469C278.153 123.043 277.029 122.197 276.296 121.057C275.563 119.917 275.259 118.543 275.431 117.14L275.511 82.9849C275.497 81.6793 275.095 80.4412 274.353 79.4121C273.611 78.3831 272.559 77.6045 271.316 77.1656L239.858 66.6419C238.693 66.1458 237.731 65.3306 237.083 64.2894C236.434 63.2483 236.126 62.0233 236.193 60.7546C236.259 59.4859 236.699 58.2247 237.46 57.1153C238.221 56.0059 239.274 55.0932 240.498 54.4814L273.047 41.2308C274.332 40.7188 275.463 39.8607 276.292 38.7695C277.12 37.6783 277.607 36.4052 277.688 35.1178L280.459 0.981368C280.474 -0.406513 280.966 -1.79765 281.859 -2.97931C282.753 -4.16097 284 -5.06813 285.409 -5.56203C286.819 -6.05594 288.313 -6.10943 289.663 -5.71431C291.013 -5.31919 292.145 -4.49722 292.886 -3.37409Z" stroke="#1B5113" stroke-width="10" stroke-linecap="round" stroke-linejoin="round"/>
<path d="M196.79 -75.0365L211.922 -55.6668C212.486 -54.9078 213.293 -54.3513 214.239 -54.069C215.185 -53.7867 216.227 -53.7916 217.231 -54.0829L242.358 -61.8483C243.409 -62.1497 244.499 -62.1467 245.484 -61.8396C246.47 -61.5326 247.303 -60.936 247.875 -60.1289C248.446 -59.3218 248.729 -58.3422 248.685 -57.3198C248.642 -56.2974 248.274 -55.2805 247.63 -54.4036L232.502 -32.4386C231.89 -31.5875 231.535 -30.6081 231.482 -29.6213C231.429 -28.6346 231.679 -27.6837 232.203 -26.8863L245.679 -6.05491C246.244 -5.2647 246.521 -4.3022 246.474 -3.29805C246.427 -2.2939 246.057 -1.29674 245.415 -0.441909C244.774 0.412919 243.891 1.084 242.886 1.48027C241.882 1.87653 240.805 1.97879 239.801 1.77314L215.166 -4.33237C214.239 -4.59276 213.219 -4.55105 212.255 -4.21343C211.292 -3.8758 210.437 -3.26022 209.818 -2.45787L192.927 18.2026C192.216 19.0091 191.283 19.6112 190.256 19.9271C189.228 20.2431 188.155 20.2576 187.182 19.9687C186.21 19.6798 185.384 19.1015 184.818 18.3122C184.252 17.523 183.973 16.5611 184.019 15.557L184.07 -10.0157C184.078 -10.9994 183.783 -11.9347 183.221 -12.7059C182.659 -13.4771 181.855 -14.0505 180.909 -14.3552L157.195 -22.0655C156.054 -22.2545 155.051 -22.812 154.347 -23.6487C153.643 -24.4854 153.278 -25.553 153.311 -26.681C153.344 -27.8089 153.772 -28.9319 154.528 -29.8706C155.284 -30.8092 156.324 -31.5092 157.48 -31.8586L182.06 -41.5151C183.057 -41.9422 183.922 -42.641 184.537 -43.5161C185.152 -44.3912 185.487 -45.3999 185.496 -46.4045L187.666 -71.8388C187.723 -72.839 188.108 -73.8286 188.768 -74.6659C189.429 -75.5032 190.33 -76.1452 191.342 -76.5001C192.355 -76.855 193.427 -76.9045 194.405 -76.6416C195.384 -76.3787 196.219 -75.8169 196.79 -75.0365Z" stroke="#1B5113" stroke-width="10" stroke-linecap="round" stroke-linejoin="round"/>
</g>
</g>
<defs>
<clipPath id="clip0_1_1394">
<rect width="76.9558" height="76.9558" fill="white" transform="translate(44.2285 35.2388)"/>
</clipPath>
<clipPath id="clip1_1_1394">
<rect width="250.019" height="227.149" fill="white" transform="matrix(0.943712 -0.330769 0.277912 0.960606 139.17 -62.2109)"/>
</clipPath>
</defs>
</svg>
