<svg width="12" height="16" viewBox="0 0 12 16" fill="none" xmlns="http://www.w3.org/2000/svg">
<path fill-rule="evenodd" clip-rule="evenodd" d="M6 4.5C5.1715 4.5 4.5 5.1715 4.5 6C4.5 6.8285 5.1715 7.5 6 7.5C6.8285 7.5 7.5 6.8285 7.5 6C7.5 5.1715 6.8285 4.5 6 4.5ZM6 8.5C4.6195 8.5 3.5 7.381 3.5 6C3.5 4.619 4.6195 3.5 6 3.5C7.3805 3.5 8.5 4.619 8.5 6C8.5 7.381 7.3805 8.5 6 8.5ZM6 0C2.6865 0 0 2.6865 0 6C0 8.509 5.0025 16.0055 6 16C6.982 16.0055 12 8.475 12 6C12 2.6865 9.3135 0 6 0Z" fill="#9233DB"/>
</svg>
