<svg width="15" height="14" viewBox="0 0 15 14" fill="none" xmlns="http://www.w3.org/2000/svg">
<g clip-path="url(#clip0_67_2583)">
<path d="M14.4918 7.12931C14.4918 6.55573 14.4442 6.13718 14.3411 5.70312H7.63867V8.29195H11.5729C11.4936 8.9353 11.0653 9.90419 10.1134 10.5552L10.1001 10.6419L12.2193 12.2462L12.3661 12.2605C13.7145 11.0436 14.4918 9.25308 14.4918 7.12931Z" fill="#4285F4"/>
<path d="M7.63899 13.9517C9.56641 13.9517 11.1845 13.3316 12.3664 12.262L10.1137 10.5567C9.51091 10.9675 8.70184 11.2543 7.63899 11.2543C5.75121 11.2543 4.14897 10.0374 3.57782 8.35547L3.4941 8.36242L1.29054 10.0289L1.26172 10.1072C2.43563 12.386 4.84693 13.9517 7.63899 13.9517Z" fill="#34A853"/>
<path d="M3.57755 8.35758C3.42685 7.92353 3.33963 7.45843 3.33963 6.97789C3.33963 6.49729 3.42685 6.03225 3.56962 5.59819L3.56563 5.50575L1.33445 3.8125L1.26144 3.84643C0.77762 4.79207 0.5 5.85399 0.5 6.97789C0.5 8.10179 0.77762 9.16365 1.26144 10.1093L3.57755 8.35758Z" fill="#FBBC05"/>
<path d="M7.63899 2.69735C8.97947 2.69735 9.88369 3.26317 10.3993 3.73602L12.414 1.81375C11.1766 0.689847 9.56642 0 7.63899 0C4.84694 0 2.43563 1.5657 1.26172 3.84449L3.5699 5.59626C4.14898 3.91428 5.75121 2.69735 7.63899 2.69735Z" fill="#EB4335"/>
</g>
<defs>
<clipPath id="clip0_67_2583">
<rect width="14" height="14" fill="white" transform="translate(0.5)"/>
</clipPath>
</defs>
</svg>
