<svg width="17" height="16" viewBox="0 0 17 16" fill="none" xmlns="http://www.w3.org/2000/svg">
<path d="M1.426 1L15.5737 15M6.80549 6.37728C6.3947 6.79724 6.1419 7.36938 6.1419 8C6.1419 9.2887 7.19761 10.3333 8.49983 10.3333C9.1463 10.3333 9.73202 10.0759 10.1579 9.659M4.17694 3.83667C2.68412 4.81138 1.54706 6.2764 1 8C2.00154 11.1555 4.98066 13.4444 8.49999 13.4444C10.0632 13.4444 11.5199 12.9929 12.744 12.2143M7.71385 2.59397C7.97243 2.56857 8.23472 2.55556 8.49999 2.55556C12.0194 2.55556 14.9985 4.84449 16 8C15.7794 8.69533 15.4626 9.34851 15.0653 9.94444" stroke="#C4C4C4" stroke-width="2" stroke-linecap="round" stroke-linejoin="round"/>
</svg>
