<svg width="34" height="34" viewBox="0 0 34 34" fill="none" xmlns="http://www.w3.org/2000/svg">
<circle cx="17" cy="17" r="17" fill="#D8DBFB"/>
<path d="M13.3333 21.5833C13.5931 21.5833 13.8109 21.4953 13.9869 21.3193C14.1629 21.1433 14.2506 20.9258 14.25 20.6667V16.0833C14.25 15.8236 14.162 15.6058 13.986 15.4298C13.81 15.2538 13.5924 15.1661 13.3333 15.1667C13.0736 15.1667 12.8558 15.2547 12.6798 15.4307C12.5038 15.6067 12.4161 15.8242 12.4167 16.0833V20.6667C12.4167 20.9264 12.5047 21.1443 12.6807 21.3203C12.8567 21.4963 13.0742 21.5839 13.3333 21.5833ZM17 21.5833C17.2597 21.5833 17.4776 21.4953 17.6536 21.3193C17.8296 21.1433 17.9173 20.9258 17.9167 20.6667V13.3333C17.9167 13.0736 17.8287 12.8558 17.6527 12.6798C17.4767 12.5038 17.2591 12.4161 17 12.4167C16.7403 12.4167 16.5224 12.5047 16.3464 12.6807C16.1704 12.8567 16.0827 13.0742 16.0833 13.3333V20.6667C16.0833 20.9264 16.1713 21.1443 16.3473 21.3203C16.5233 21.4963 16.7409 21.5839 17 21.5833ZM20.6667 21.5833C20.9264 21.5833 21.1443 21.4953 21.3203 21.3193C21.4963 21.1433 21.5839 20.9258 21.5833 20.6667V18.8333C21.5833 18.5736 21.4953 18.3558 21.3193 18.1798C21.1433 18.0038 20.9258 17.9161 20.6667 17.9167C20.4069 17.9167 20.1891 18.0047 20.0131 18.1807C19.8371 18.3567 19.7494 18.5742 19.75 18.8333V20.6667C19.75 20.9264 19.838 21.1443 20.014 21.3203C20.19 21.4963 20.4076 21.5839 20.6667 21.5833ZM10.5833 25.25C10.0792 25.25 9.64742 25.0703 9.28808 24.711C8.92875 24.3517 8.74939 23.9202 8.75 23.4167V10.5833C8.75 10.0792 8.92967 9.64742 9.289 9.28808C9.64833 8.92875 10.0798 8.74939 10.5833 8.75H23.4167C23.9208 8.75 24.3526 8.92967 24.7119 9.289C25.0713 9.64833 25.2506 10.0798 25.25 10.5833V23.4167C25.25 23.9208 25.0703 24.3526 24.711 24.7119C24.3517 25.0713 23.9202 25.2506 23.4167 25.25H10.5833ZM10.5833 23.4167H23.4167V10.5833H10.5833V23.4167Z" fill="#057DF3"/>
</svg>
