<svg width="140" height="139" viewBox="0 0 140 139" fill="none" xmlns="http://www.w3.org/2000/svg">
<rect width="3.78379" height="3.78379" rx="1.89189" fill="#D8DBFB"/>
<rect x="15.1348" width="3.78379" height="3.78379" rx="1.89189" fill="#D8DBFB"/>
<rect x="30.2695" width="3.78379" height="3.78379" rx="1.89189" fill="#D8DBFB"/>
<rect x="45.4062" width="3.78379" height="3.78379" rx="1.89189" fill="#D8DBFB"/>
<rect x="60.541" width="3.78379" height="3.78379" rx="1.89189" fill="#D8DBFB"/>
<rect x="75.6758" width="3.78379" height="3.78379" rx="1.89189" fill="#D8DBFB"/>
<rect x="90.8105" width="3.78379" height="3.78379" rx="1.89189" fill="#D8DBFB"/>
<rect x="105.947" width="3.78379" height="3.78379" rx="1.89189" fill="#D8DBFB"/>
<rect x="121.082" width="3.78379" height="3.78379" rx="1.89189" fill="#D8DBFB"/>
<rect x="136.217" width="3.78379" height="3.78379" rx="1.89189" fill="#D8DBFB"/>
<rect y="15.135" width="3.78379" height="3.78379" rx="1.89189" fill="#D8DBFB"/>
<rect x="15.1348" y="15.1348" width="3.78379" height="3.78379" rx="1.89189" fill="#D8DBFB"/>
<rect x="30.2695" y="15.1348" width="3.78379" height="3.78379" rx="1.89189" fill="#D8DBFB"/>
<rect x="45.4062" y="15.1348" width="3.78379" height="3.78379" rx="1.89189" fill="#D8DBFB"/>
<rect x="60.541" y="15.1348" width="3.78379" height="3.78379" rx="1.89189" fill="#D8DBFB"/>
<rect x="75.6758" y="15.135" width="3.78379" height="3.78379" rx="1.89189" fill="#D8DBFB"/>
<rect x="90.8105" y="15.1348" width="3.78379" height="3.78379" rx="1.89189" fill="#D8DBFB"/>
<rect x="105.947" y="15.1348" width="3.78379" height="3.78379" rx="1.89189" fill="#D8DBFB"/>
<rect x="121.082" y="15.1348" width="3.78379" height="3.78379" rx="1.89189" fill="#D8DBFB"/>
<rect x="136.217" y="15.1348" width="3.78379" height="3.78379" rx="1.89189" fill="#D8DBFB"/>
<rect y="30.2703" width="3.78379" height="3.78379" rx="1.89189" fill="#D8DBFB"/>
<rect x="15.1348" y="30.2705" width="3.78379" height="3.78379" rx="1.89189" fill="#D8DBFB"/>
<rect x="30.2695" y="30.2705" width="3.78379" height="3.78379" rx="1.89189" fill="#D8DBFB"/>
<rect x="45.4062" y="30.2705" width="3.78379" height="3.78379" rx="1.89189" fill="#D8DBFB"/>
<rect x="60.541" y="30.2705" width="3.78379" height="3.78379" rx="1.89189" fill="#D8DBFB"/>
<rect x="75.6758" y="30.2703" width="3.78379" height="3.78379" rx="1.89189" fill="#D8DBFB"/>
<rect x="90.8105" y="30.2705" width="3.78379" height="3.78379" rx="1.89189" fill="#D8DBFB"/>
<rect x="105.947" y="30.2705" width="3.78379" height="3.78379" rx="1.89189" fill="#D8DBFB"/>
<rect x="121.082" y="30.2705" width="3.78379" height="3.78379" rx="1.89189" fill="#D8DBFB"/>
<rect x="136.217" y="30.2705" width="3.78379" height="3.78379" rx="1.89189" fill="#D8DBFB"/>
<rect y="45.4053" width="3.78379" height="3.78379" rx="1.89189" fill="#D8DBFB"/>
<rect x="15.1348" y="45.4053" width="3.78379" height="3.78379" rx="1.89189" fill="#D8DBFB"/>
<rect x="30.2695" y="45.4053" width="3.78379" height="3.78379" rx="1.89189" fill="#D8DBFB"/>
<rect x="45.4062" y="45.4053" width="3.78379" height="3.78379" rx="1.89189" fill="#D8DBFB"/>
<rect x="60.541" y="45.4053" width="3.78379" height="3.78379" rx="1.89189" fill="#D8DBFB"/>
<rect x="75.6758" y="45.4053" width="3.78379" height="3.78379" rx="1.89189" fill="#D8DBFB"/>
<rect x="90.8105" y="45.4053" width="3.78379" height="3.78379" rx="1.89189" fill="#D8DBFB"/>
<rect x="105.947" y="45.4053" width="3.78379" height="3.78379" rx="1.89189" fill="#D8DBFB"/>
<rect x="121.082" y="45.4053" width="3.78379" height="3.78379" rx="1.89189" fill="#D8DBFB"/>
<rect x="136.217" y="45.4053" width="3.78379" height="3.78379" rx="1.89189" fill="#D8DBFB"/>
<rect y="60.5408" width="3.78379" height="3.78379" rx="1.89189" fill="#D8DBFB"/>
<rect x="15.1348" y="60.541" width="3.78379" height="3.78379" rx="1.89189" fill="#D8DBFB"/>
<rect x="30.2695" y="60.541" width="3.78379" height="3.78379" rx="1.89189" fill="#D8DBFB"/>
<rect x="45.4062" y="60.541" width="3.78379" height="3.78379" rx="1.89189" fill="#D8DBFB"/>
<rect x="60.541" y="60.541" width="3.78379" height="3.78379" rx="1.89189" fill="#D8DBFB"/>
<rect x="75.6758" y="60.5408" width="3.78379" height="3.78379" rx="1.89189" fill="#D8DBFB"/>
<rect x="90.8105" y="60.541" width="3.78379" height="3.78379" rx="1.89189" fill="#D8DBFB"/>
<rect x="105.947" y="60.541" width="3.78379" height="3.78379" rx="1.89189" fill="#D8DBFB"/>
<rect x="121.082" y="60.541" width="3.78379" height="3.78379" rx="1.89189" fill="#D8DBFB"/>
<rect x="136.217" y="60.541" width="3.78379" height="3.78379" rx="1.89189" fill="#D8DBFB"/>
<rect y="75.6758" width="3.78379" height="3.78379" rx="1.89189" fill="#D8DBFB"/>
<rect x="15.1348" y="75.6758" width="3.78379" height="3.78379" rx="1.89189" fill="#D8DBFB"/>
<rect x="30.2695" y="75.6758" width="3.78379" height="3.78379" rx="1.89189" fill="#D8DBFB"/>
<rect x="45.4062" y="75.6758" width="3.78379" height="3.78379" rx="1.89189" fill="#D8DBFB"/>
<rect x="60.541" y="75.6758" width="3.78379" height="3.78379" rx="1.89189" fill="#D8DBFB"/>
<rect x="75.6758" y="75.6758" width="3.78379" height="3.78379" rx="1.89189" fill="#D8DBFB"/>
<rect x="90.8105" y="75.6758" width="3.78379" height="3.78379" rx="1.89189" fill="#D8DBFB"/>
<rect x="105.947" y="75.6758" width="3.78379" height="3.78379" rx="1.89189" fill="#D8DBFB"/>
<rect x="121.082" y="75.6758" width="3.78379" height="3.78379" rx="1.89189" fill="#D8DBFB"/>
<rect x="136.217" y="75.6758" width="3.78379" height="3.78379" rx="1.89189" fill="#D8DBFB"/>
<rect y="90.811" width="3.78379" height="3.78379" rx="1.89189" fill="#D8DBFB"/>
<rect y="105.408" width="3.78379" height="3.78379" rx="1.89189" fill="#D8DBFB"/>
<rect y="120.006" width="3.78379" height="3.78379" rx="1.89189" fill="#D8DBFB"/>
<rect y="134.603" width="3.78379" height="3.78379" rx="1.89189" fill="#D8DBFB"/>
<rect x="15.1348" y="90.811" width="3.78379" height="3.78379" rx="1.89189" fill="#D8DBFB"/>
<rect x="15.1348" y="105.408" width="3.78379" height="3.78379" rx="1.89189" fill="#D8DBFB"/>
<rect x="15.1348" y="120.006" width="3.78379" height="3.78379" rx="1.89189" fill="#D8DBFB"/>
<rect x="15.1348" y="134.603" width="3.78379" height="3.78379" rx="1.89189" fill="#D8DBFB"/>
<rect x="30.2695" y="90.811" width="3.78379" height="3.78379" rx="1.89189" fill="#D8DBFB"/>
<rect x="30.2695" y="105.408" width="3.78379" height="3.78379" rx="1.89189" fill="#D8DBFB"/>
<rect x="30.2695" y="120.006" width="3.78379" height="3.78379" rx="1.89189" fill="#D8DBFB"/>
<rect x="30.2695" y="134.603" width="3.78379" height="3.78379" rx="1.89189" fill="#D8DBFB"/>
<rect x="45.4062" y="90.811" width="3.78379" height="3.78379" rx="1.89189" fill="#D8DBFB"/>
<rect x="45.4062" y="105.408" width="3.78379" height="3.78379" rx="1.89189" fill="#D8DBFB"/>
<rect x="45.4062" y="120.006" width="3.78379" height="3.78379" rx="1.89189" fill="#D8DBFB"/>
<rect x="45.4062" y="134.603" width="3.78379" height="3.78379" rx="1.89189" fill="#D8DBFB"/>
<rect x="60.541" y="90.811" width="3.78379" height="3.78379" rx="1.89189" fill="#D8DBFB"/>
<rect x="60.541" y="105.408" width="3.78379" height="3.78379" rx="1.89189" fill="#D8DBFB"/>
<rect x="60.541" y="120.006" width="3.78379" height="3.78379" rx="1.89189" fill="#D8DBFB"/>
<rect x="60.541" y="134.603" width="3.78379" height="3.78379" rx="1.89189" fill="#D8DBFB"/>
<rect x="75.6758" y="90.811" width="3.78379" height="3.78379" rx="1.89189" fill="#D8DBFB"/>
<rect x="75.6758" y="105.408" width="3.78379" height="3.78379" rx="1.89189" fill="#D8DBFB"/>
<rect x="75.6758" y="120.006" width="3.78379" height="3.78379" rx="1.89189" fill="#D8DBFB"/>
<rect x="75.6758" y="134.603" width="3.78379" height="3.78379" rx="1.89189" fill="#D8DBFB"/>
<rect x="90.8105" y="90.811" width="3.78379" height="3.78379" rx="1.89189" fill="#D8DBFB"/>
<rect x="90.8105" y="105.408" width="3.78379" height="3.78379" rx="1.89189" fill="#D8DBFB"/>
<rect x="90.8105" y="120.006" width="3.78379" height="3.78379" rx="1.89189" fill="#D8DBFB"/>
<rect x="90.8105" y="134.603" width="3.78379" height="3.78379" rx="1.89189" fill="#D8DBFB"/>
<rect x="105.947" y="90.811" width="3.78379" height="3.78379" rx="1.89189" fill="#D8DBFB"/>
<rect x="105.947" y="105.408" width="3.78379" height="3.78379" rx="1.89189" fill="#D8DBFB"/>
<rect x="105.947" y="120.006" width="3.78379" height="3.78379" rx="1.89189" fill="#D8DBFB"/>
<rect x="105.947" y="134.603" width="3.78379" height="3.78379" rx="1.89189" fill="#D8DBFB"/>
<rect x="121.082" y="90.811" width="3.78379" height="3.78379" rx="1.89189" fill="#D8DBFB"/>
<rect x="121.082" y="105.408" width="3.78379" height="3.78379" rx="1.89189" fill="#D8DBFB"/>
<rect x="121.082" y="120.006" width="3.78379" height="3.78379" rx="1.89189" fill="#D8DBFB"/>
<rect x="121.082" y="134.603" width="3.78379" height="3.78379" rx="1.89189" fill="#D8DBFB"/>
<rect x="136.217" y="90.811" width="3.78379" height="3.78379" rx="1.89189" fill="#D8DBFB"/>
<rect x="136.217" y="105.408" width="3.78379" height="3.78379" rx="1.89189" fill="#D8DBFB"/>
<rect x="136.217" y="120.006" width="3.78379" height="3.78379" rx="1.89189" fill="#D8DBFB"/>
<rect x="136.217" y="134.603" width="3.78379" height="3.78379" rx="1.89189" fill="#D8DBFB"/>
</svg>
