<svg width="34" height="34" viewBox="0 0 34 34" fill="none" xmlns="http://www.w3.org/2000/svg">
<circle cx="17" cy="17" r="17" fill="#D8DBFB"/>
<g clip-path="url(#clip0_1_1476)">
<path fill-rule="evenodd" clip-rule="evenodd" d="M20.1888 25.5962C21.9436 24.9447 23.4569 23.7718 24.5256 22.2351C25.5944 20.6984 26.1672 18.8715 26.1673 16.9997C26.1673 11.9369 22.0634 7.83301 17.0007 7.83301C11.9379 7.83301 7.83398 11.9369 7.83398 16.9997C7.83398 22.0624 11.9379 26.1663 17.0007 26.1663C17.9915 26.1674 18.976 26.0077 19.9157 25.6933C20.0113 25.6756 20.1035 25.6428 20.1888 25.5962ZM17.0007 9.66634C15.5269 9.66404 14.0869 10.1079 12.8702 10.9396C12.8738 10.9726 12.8757 11.0065 12.8757 11.0413V14.268C12.8755 14.4644 12.9384 14.6556 13.055 14.8135C13.1717 14.9714 13.336 15.0877 13.5237 15.1453L14.7072 15.5064L14.5467 14.5458C14.4314 13.8542 14.5846 13.1448 14.975 12.5624C15.3653 11.98 15.9633 11.5687 16.6468 11.4126L17.0144 11.3292C17.1869 11.2898 17.3442 11.2013 17.4675 11.0744C17.5908 10.9475 17.6748 10.7877 17.7092 10.6142L17.8889 9.71951C17.5942 9.684 17.2975 9.66625 17.0007 9.66634ZM11.0423 14.268V12.7234C10.1745 13.9318 9.6947 15.3755 9.66663 16.8629C9.63856 18.3503 10.0635 19.8111 10.8851 21.0513C11.7067 22.2915 12.8861 23.2525 14.2667 23.8067C15.6473 24.3609 17.1638 24.4821 18.6149 24.1543L18.0832 22.2916C18.0402 22.1419 17.9598 22.0056 17.8495 21.8956L16.7147 20.7598C16.5779 20.6231 16.4715 20.4591 16.4024 20.2785C16.3333 20.0979 16.3031 19.9047 16.3137 19.7116C16.3244 19.5186 16.3756 19.3299 16.4641 19.1579C16.5526 18.986 16.6764 18.8347 16.8274 18.7138L18.262 17.5671C18.5355 17.3483 18.8659 17.2124 19.2142 17.1756C19.5625 17.1387 19.9141 17.2023 20.2273 17.359L21.5748 18.0328C21.9797 18.2352 22.3283 18.5345 22.5898 18.9041C22.8512 19.2736 23.0174 19.702 23.0736 20.1512L23.1744 20.9588C23.7602 20.0449 24.1359 19.0125 24.2744 17.9359C24.4129 16.8593 24.3107 15.7654 23.9753 14.733C23.6399 13.7007 23.0796 12.7556 22.3348 11.966C21.5899 11.1764 20.6792 10.5619 19.6682 10.1668L19.5068 10.9744C19.4028 11.4942 19.1508 11.9728 18.7812 12.3527C18.4115 12.7326 17.94 12.9976 17.4232 13.1158L17.0557 13.2001C16.8276 13.2521 16.6281 13.3892 16.4979 13.5835C16.3677 13.7778 16.3167 14.0144 16.3553 14.2451L16.5157 15.2058C16.5668 15.5137 16.5385 15.8296 16.4333 16.1235C16.3282 16.4174 16.1498 16.6796 15.9149 16.8852C15.6801 17.0908 15.3967 17.2331 15.0915 17.2985C14.7862 17.364 14.4694 17.3504 14.1709 17.2591L12.9884 16.8979C12.4252 16.7257 11.9321 16.3773 11.5817 15.9038C11.2314 15.4304 11.0423 14.857 11.0423 14.268ZM21.551 22.7508C21.1751 23.049 20.7707 23.3093 20.3437 23.5282L19.846 21.7883C19.7178 21.3387 19.4771 20.9292 19.1466 20.5985L18.3729 19.8258L19.4069 18.9989L20.7544 19.6727C20.8895 19.74 21.0059 19.8397 21.0932 19.9628C21.1805 20.086 21.236 20.2287 21.2549 20.3785L21.551 22.7508Z" fill="#057DF3"/>
</g>
<defs>
<clipPath id="clip0_1_1476">
<rect width="22" height="22" fill="white" transform="translate(6 6)"/>
</clipPath>
</defs>
</svg>
